# xmcd
#
# Track frame offsets:
#   150
#   10842
#   22890
#   37800
#   50972
#   67037
#   81487
#   92540
#   105110
#   117922
#
# Disc length: 1753 seconds
#
# Revision: 0
# Processed by: cddbd v1.4PL0 Copyright (c) Steve Scherf et al.
# Submitted via: CD-Datenbank 4.*
#
DISCID=7306d70a
DTITLE=David Bolles - All my heroes played guitars
DYEAR=1993
DGENRE=Country
TTITLE0=All my heroes played guitars
TTITLE1=Lonesome city - population one
TTITLE2=One of us is lying
TTITLE3=Water under the bridge
TTITLE4=You were wrong
TTITLE5=You don´t have to be a cowboy
TTITLE6=Thank god it´s friday
TTITLE7=Pebbles and pearls
TTITLE8=If only
TTITLE9=There´s nothing wrong with America
EXTD=
EXTT0=
EXTT1=
EXTT2=
EXTT3=
EXTT4=
EXTT5=
EXTT6=
EXTT7=
EXTT8=
EXTT9=
PLAYORDER=
